<?xml version="1.0" encoding="UTF-8"?>
<svg xmlns="http://www.w3.org/2000/svg" xmlns:xlink="http://www.w3.org/1999/xlink" width="45px" height="45px" viewBox="0 0 45 45" version="1.1">
<g id="surface1">
<path style=" stroke:none;fill-rule:nonzero;fill:rgb(67.843137%,70.980392%,74.117647%);fill-opacity:1;" d="M 5.449219 39.640625 L 5.449219 37.765625 L 7.507812 37.765625 L 7.507812 26.621094 C 7.507812 21.558594 11.617188 17.445312 16.679688 17.445312 L 21.65625 17.445312 L 21.65625 15.390625 L 23.527344 15.390625 L 23.527344 17.445312 L 27.5625 17.445312 L 27.5625 7.234375 L 25.507812 7.234375 L 25.507812 5.359375 L 39.726562 5.359375 L 39.726562 7.234375 L 37.671875 7.234375 L 37.671875 18.386719 C 37.671875 23.449219 33.554688 27.5625 28.492188 27.5625 L 23.519531 27.5625 L 23.519531 29.617188 L 21.648438 29.617188 L 21.648438 27.5625 L 17.613281 27.5625 L 17.613281 37.785156 L 19.671875 37.785156 L 19.671875 39.640625 Z M 16.679688 19.320312 C 12.65625 19.320312 9.378906 22.597656 9.378906 26.621094 L 9.378906 37.773438 L 15.75 37.773438 L 15.75 27.308594 C 15.75 26.410156 16.480469 25.691406 17.367188 25.691406 L 21.65625 25.691406 L 21.65625 19.320312 Z M 23.519531 25.691406 L 28.492188 25.691406 C 32.519531 25.691406 35.796875 22.414062 35.796875 18.386719 L 35.796875 7.234375 L 29.425781 7.234375 L 29.425781 17.703125 C 29.425781 18.597656 28.695312 19.320312 27.808594 19.320312 L 23.519531 19.320312 Z M 23.519531 25.691406 "/>
</g>
</svg>
